# AST/ASF file generated using VICON BodyLanguage
# -----------------------------------------------
:version 1.10
:name VICON
:units
  mass 1.0
  length 0.45
  angle deg
:documentation
   .ast/.asf automatically generated from VICON data using
   VICON BodyBuilder and BodyLanguage model FoxedUp or BRILLIANT.MOD
:root
   order TX TY TZ RX RY RZ
   axis XYZ
   position 0 0 0  
   orientation 0 0 0 
:bonedata
  begin
     id 1 
     name lhipjoint
     direction 0.576517 -0.752066 0.319413 
     length 2.45433 
     axis 0 0 0  XYZ
  end
  begin
     id 2 
     name lfemur
     direction 0.34202 -0.939693 0  
     length 7.54459  
     axis 0 0 20  XYZ
    dof rx ry rz
    limits (-160.0 20.0)
           (-70.0 70.0)
           (-60.0 70.0)
  end
  begin
     id 3 
     name ltibia
     direction 0.34202 -0.939693 0   
     length 7.73986   
     axis 0 0 20   XYZ
    dof rx
    limits (-10.0 170.0)
  end
  begin
     id 4 
     name lfoot
     direction 0.090693 -0.249177 0.964202   
     length 2.28437   
     axis -90 7.62852e-016 20   XYZ
    dof rx rz
    limits (-45.0 90.0)
           (-70.0 20.0)
  end
  begin
     id 5 
     name ltoes
     direction 1.5356e-011 -4.21928e-011 1   
     length 1.14243   
     axis -90 7.62852e-016 20   XYZ
    dof rx
    limits (-90.0 20.0)
  end
  begin
     id 6 
     name rhipjoint
     direction -0.573937 -0.753736 0.320122   
     length 2.44889  
     axis 0 0 0  XYZ 
  end
  begin
     id 7 
     name rfemur
     direction -0.34202 -0.939693 0   
     length 7.50166   
     axis 0 0 -20   XYZ
    dof rx ry rz
    limits (-160.0 20.0)
           (-70.0 70.0)
           (-70.0 60.0)
  end
  begin
     id 8 
     name rtibia
     direction -0.34202 -0.939693 0   
     length 7.54266   
     axis 0 0 -20   XYZ
    dof rx
    limits (-10.0 170.0)
 end
 begin
     id 9 
     name rfoot
     direction -0.114017 -0.31326 0.942798   
     length 2.34212  
     axis -90 -7.62852e-016 -20   XYZ
    dof rx rz
    limits (-45.0 90.0)
           (-20.0 70.0)
  end
  begin
     id 10 
     name rtoes
     direction -1.53557e-011 -4.21867e-011 1   
     length 1.16246   
     axis -90 -7.62852e-016 -20   XYZ
    dof rx
    limits (-90.0 20.0)
  end
  begin
     id 11 
     name lowerback
     direction -0.0228371 0.999155 -0.034167   
     length 2.0537   
     axis 0 0 0   XYZ
    dof rx ry rz
    limits (-20.0 45.0)
           (-30.0 30.0)
           (-30.0 30.0)
  end
  begin
     id 12 
     name upperback
     direction 0.0198981 0.999794 0.00389455   
     length 2.05302   
     axis 0 0 0   XYZ
    dof rx ry rz
    limits (-20.0 45.0)
           (-30.0 30.0)
           (-30.0 30.0)
  end
  begin
     id 13 
     name thorax
     direction 0.0304566 0.99935 0.0192987   
     length 2.05315   
     axis 0 0 0   XYZ
    dof rx ry rz
    limits (-20.0 45.0)
           (-30.0 30.0)
           (-30.0 30.0)
  end
  begin
     id 14 
     name lowerneck
     direction -0.0196762 0.99417 0.106017   
     length 1.82056   
     axis 0 0 0   XYZ
    dof rx ry rz
    limits (-20.0 45.0)
           (-30.0 30.0)
           (-30.0 30.0)
  end
  begin
     id 15 
     name upperneck
     direction 0.00517787 0.9802 -0.197944   
     length 1.83835   
     axis 0 0 0   XYZ
    dof rx ry rz
    limits (-20.0 45.0)
           (-30.0 30.0)
           (-30.0 30.0)
  end
  begin
     id 16
     name head
     direction 0.00211419 0.996945 -0.078081  
     length 1.85629  
     axis 0 0 0   XYZ
    dof rx ry rz
    limits (-20.0 45.0)
           (-30.0 30.0)
           (-30.0 30.0)
  end
  begin
     id 17 
     name lclavicle
     direction 0.930001 0.365811 -0.0357824  
     length 3.81961  
     axis 0 0 0   XYZ
    dof ry rz
    limits (-20.0 10.0)
           (0.0 20.0)
  end
  begin
     id 18 
     name lhumerus
     direction 1 -4.48968e-011 -3.06644e-027   
     length 5.14507   
     axis 180 -30 -90   XYZ
    dof rx ry rz
    limits (-60.0 90.0)
           (-90.0 90.0)
           (-90.0 90.0)
  end
  begin
     id 19
     name lradius
     direction 1 -4.48965e-011 9.06925e-028   
     length 3.50646   
     axis 180 -30 -90   XYZ
    dof rx
    limits (-10.0 170.0)
  end
  begin
     id 20
     name lwrist
     direction 1 -4.48957e-011 1.03922e-027   
     length 1.75323   
     axis -2.56395e-016 90 90   XYZ
    dof ry
    limits (-180.0 0.0)
 end
  begin
     id 21 
     name lhand
     direction 1 -4.48967e-011 2.08017e-027   
     length 0.629969   
     axis -1.32723e-015 90 90   XYZ
    dof rx rz
    limits (-90.0 90.0)
           (-45.0 45.0)
  end
  begin
     id 22 
     name lfingers
     direction 1 -4.49089e-011 4.20095e-027   
     length 0.507897   
     axis -2.6545e-015 90 90   XYZ
    dof rx
    limits (0.0 90.0)
  end
  begin
     id 23
     name lthumb
     direction 0.707107 -6.35001e-011 0.707107   
     length 0.729241   
     axis -90 45 5.05613e-014   XYZ
    dof rx rz
    limits (-45.0 45.0)
           (-45.0 45.0)
  end
  begin
     id 24 
     name rclavicle
     direction -0.881882 0.464123 -0.0829113   
     length 3.47515  
     axis 0 0 0   XYZ 
    dof ry rz
    limits (-10.0 20.0)
           (-20.0 0.0)
  end
  begin
     id 25 
     name rhumerus
     direction -1 -4.48961e-011 -1.55672e-027  
     length 5.232   
     axis 180 30 90   XYZ
    dof rx ry rz
    limits (-90.0 60.0)
           (-90.0 90.0)
           (-90.0 90.0)
  end
  begin
     id 26 
     name rradius
     direction -1 -4.48963e-011 6.18178e-029   
     length 3.65641   
     axis 180 30 90   XYZ
    dof rx
    limits (-10.0 170.0)
  end
  begin
     id 27 
     name rwrist
     direction -1 -4.48982e-011 1.04136e-027   
     length 1.8282   
     axis -2.56395e-016 -90 -90   XYZ
    dof ry
    limits (-180.0 0.0)
  end
  begin
     id 28
     name rhand
     direction -1 -4.48929e-011 2.07378e-027   
     length 0.656807   
     axis -1.32723e-015 -90 -90   XYZ
    dof rx rz
    limits (-90.0 90.0)
           (-45.0 45.0)
  end
  begin
     id 29
     name rfingers
     direction -1 -4.489e-011 4.13816e-027   
     length 0.529535   
     axis -2.6545e-015 -90 -90   XYZ
    dof rx
    limits (0.0 90.0)
  end
  begin
     id 30
     name rthumb
     direction -0.707107 -6.34843e-011 0.707107   
     length 0.760309   
     axis -90 -45 -5.05613e-014   XYZ
    dof rx rz
    limits (-45.0 45.0)
           (-45.0 45.0)
  end
:hierarchy
  begin
    root lhipjoint rhipjoint lowerback
    lhipjoint lfemur
    lfemur ltibia
    ltibia lfoot
    lfoot ltoes
    rhipjoint rfemur
    rfemur rtibia
    rtibia rfoot
    rfoot rtoes
    lowerback upperback
    upperback thorax
    thorax lowerneck lclavicle rclavicle
    lowerneck upperneck
    upperneck head
    lclavicle lhumerus
    lhumerus lradius
    lradius lwrist
    lwrist lhand lthumb
    lhand lfingers
    rclavicle rhumerus
    rhumerus rradius
    rradius rwrist
    rwrist rhand rthumb
    rhand rfingers
  end

#!OML:ASF H:\ManfredETheater\Project 1\Capture day 1\Session 1\subject.ASF
:FULLY-SPECIFIED
:DEGREES
17
root 5.53919 15.4199 28.7626 -157.249 -1.43114 -181.31
lowerback 15.0482 -1.00396 -1.65119
upperback -0.952847 -1.59894 0.897966
thorax -9.42954 -0.677463 2.27365
lowerneck -21.9828 -0.337843 0.140089
upperneck 1.07569 0.207047 -0.0795591
head 3.73534 0.387461 -0.00932826
rclavicle 2.25124e-014 -9.54166e-015
rhumerus -58.9445 -1.35206 -83.4954
rradius 74.9649
rwrist -11.6372
rhand -33.0026 7.7606
rfingers 7.12502
rthumb -6.21671 -22.1282
lclavicle 2.25124e-014 -9.54166e-015
lhumerus -41.8713 -8.53746 100.1
lradius 111.785
lwrist 17.3545
lhand -22.4325 -10.1789
lfingers 7.12502
lthumb 3.99108 19.7635
rfemur -66.7604 -13.2434 15.5239
rtibia 90.3039
rfoot -10.1434 -7.71252
rtoes -12.7075
lfemur -23.7732 -2.16602 -32.9858
ltibia 56.6803
lfoot -29.1229 -6.26398
ltoes 2.80035
18
root 5.51565 15.5036 28.2323 -157.266 -1.60691 -181.215
lowerback 14.7002 -1.21831 -1.6935
upperback -1.08069 -1.85894 1.13858
thorax -9.34825 -0.791185 2.60673
lowerneck -22.099 -0.0886628 0.306631
upperneck 1.38815 0.492754 -0.433385
head 3.85155 0.495055 -0.120497
rclavicle 1.98785e-015 -3.37934e-015
rhumerus -60.6702 -1.4677 -82.5179
rradius 76.2264
rwrist -11.036
rhand -32.816 8.25925
rfingers 7.12502
rthumb -6.03659 -21.6347
lclavicle 1.98785e-015 -3.37934e-015
lhumerus -42.0437 -9.67982 100.412
lradius 114.709
lwrist 16.7519
lhand -22.2014 -10.3786
lfingers 7.12502
lthumb 4.21428 19.5595
rfemur -68.0841 -12.9861 15.4392
rtibia 87.1826
rfoot -10.3505 -8.00739
rtoes -15.6696
lfemur -20.9934 -2.51847 -32.6913
ltibia 54.3435
lfoot -26.4835 -6.55893
ltoes -0.305769
19
root 5.4904 15.5906 27.6945 -157.354 -1.72147 -181.069
lowerback 14.3955 -1.38644 -1.71153
upperback -1.20179 -2.05562 1.38856
thorax -9.28567 -0.876352 2.92142
lowerneck -22.1864 0.144766 0.441079
upperneck 1.74683 0.76161 -0.773325
head 3.97981 0.591998 -0.2235
rclavicle -3.70733e-014 1.11319e-014
rhumerus -62.3772 -1.65385 -81.4538
rradius 77.4029
rwrist -10.5141
rhand -32.652 8.75217
rfingers 7.12502
rthumb -5.87826 -21.1463
lclavicle -3.70733e-014 1.11319e-014
lhumerus -42.2681 -10.8307 100.706
lradius 117.441
lwrist 15.9752
lhand -22.0529 -10.6277
lfingers 7.12502
lthumb 4.35767 19.3075
rfemur -69.0218 -12.6288 15.2657
rtibia 83.7564
rfoot -10.3727 -8.13975
rtoes -18.8184
lfemur -18.1723 -2.82783 -32.4008
ltibia 51.8991
lfoot -23.3548 -6.86251
ltoes -3.10539
20
root 5.46399 15.6783 27.1501 -157.505 -1.78634 -180.885
lowerback 14.1142 -1.51698 -1.70935
upperback -1.30859 -2.20165 1.64122
thorax -9.22256 -0.939415 3.2157
lowerneck -22.2618 0.364518 0.54656
upperneck 2.15444 1.0164 -1.08835
head 4.1231 0.680807 -0.315057
rclavicle -3.75703e-014 9.14409e-015
rhumerus -64.0445 -1.89564 -80.3314
rradius 78.529
rwrist -10.1682
rhand -32.4803 9.04005
rfingers 7.12502
rthumb -5.7125 -20.8629
lclavicle -3.75703e-014 9.14409e-015
lhumerus -42.533 -11.9628 100.974
lradius 119.983
lwrist 15.1592
lhand -21.962 -10.9098
lfingers 7.12502
lthumb 4.4455 19.0235
rfemur -69.5984 -12.1876 14.998
rtibia 80.0786
rfoot -10.1877 -8.08887
rtoes -22.1148
lfemur -15.3291 -3.10502 -32.1205
ltibia 49.3618
lfoot -19.6812 -7.19083
ltoes -5.2987
21
root 5.43711 15.7641 26.6 -157.71 -1.81234 -180.673
lowerback 13.8451 -1.61889 -1.69623
upperback -1.40083 -2.31068 1.89297
thorax -9.15215 -0.98662 3.49402
lowerneck -22.3227 0.572882 0.61957
upperneck 2.60386 1.26116 -1.36616
head 4.27847 0.764559 -0.390354
rclavicle 1.68967e-014 4.47266e-015
rhumerus -65.6533 -2.17331 -79.1691
rradius 79.583
rwrist -10.0179
rhand -32.3189 9.22249
rfingers 7.12502
rthumb -5.5566 -20.6847
lclavicle 1.68967e-014 4.47266e-015
lhumerus -42.8388 -13.0461 101.216
lradius 122.339
lwrist 14.4185
lhand -21.9069 -11.2133
lfingers 7.12502
lthumb 4.49865 18.7189
rfemur -69.8538 -11.6755 14.6311
rtibia 76.2235
rfoot -9.7561 -7.83763
rtoes -25.4258
lfemur -12.4989 -3.37069 -31.8571
ltibia 46.7911
lfoot -15.4616 -7.47338
ltoes -6.76215
22
root 5.40996 15.8454 26.0454 -157.949 -1.8144 -180.449
lowerback 13.5591 -1.7039 -1.67715
upperback -1.47726 -2.39914 2.1377
thorax -9.05574 -1.02613 3.75487
lowerneck -22.3688 0.773267 0.661725
upperneck 3.08545 1.50065 -1.60168
head 4.44255 0.846476 -0.447559
rclavicle 1.98785e-015 2.98177e-015
rhumerus -67.1833 -2.46683 -77.989
rradius 80.5715
rwrist -10.0369
rhand -32.1709 9.31075
rfingers 7.12502
rthumb -5.41371 -20.6001
lclavicle 1.98785e-015 2.98177e-015
lhumerus -43.1767 -14.0609 101.422
lradius 124.515
lwrist 13.8179
lhand -21.8775 -11.5125
lfingers 7.12502
lthumb 4.52705 18.4191
rfemur -69.8379 -11.1218 14.166
rtibia 72.2383
rfoot -9.02244 -7.40436
rtoes -28.5733
lfemur -9.69807 -3.66156 -31.6278
ltibia 44.1956
lfoot -10.802 -7.60418
ltoes -7.44438
23
root 5.38567 15.9069 25.4902 -158.196 -1.79993 -180.233
lowerback 13.2257 -1.77869 -1.66494
upperback -1.53983 -2.47793 2.37005
thorax -8.91707 -1.06293 4.0004
lowerneck -22.4069 0.96687 0.676296
upperneck 3.59449 1.73658 -1.79624
head 4.61457 0.927803 -0.487352
rclavicle 3.06128e-014 -1.68967e-014
rhumerus -68.6096 -2.75294 -76.811
rradius 81.4956
rwrist -10.1731
rhand -32.0492 9.33684
rfingers 7.12502
rthumb -5.29619 -20.577
lclavicle 3.06128e-014 -1.68967e-014
lhumerus -43.5343 -14.9957 101.584
lradius 126.504
lwrist 13.3869
lhand -21.8347 -11.8337
lfingers 7.12502
lthumb 4.56836 18.0971
rfemur -69.6911 -10.5456 13.6064
rtibia 68.2364
rfoot -7.88341 -6.83337
rtoes -31.3342
lfemur -6.9814 -4.00662 -31.4558
ltibia 41.6723
lfoot -5.9462 -7.48286
ltoes -7.27665
24
root 5.35946 15.9696 24.9302 -158.432 -1.78559 -180.038
lowerback 12.8272 -1.85067 -1.66392
upperback -1.59267 -2.55736 2.58689
thorax -8.7299 -1.10189 4.23064
lowerneck -22.4313 1.15574 0.673491
upperneck 4.11507 1.97112 -1.9634
head 4.78874 1.0095 -0.515431
rclavicle 3.16068e-014 -1.53064e-014
rhumerus -69.9222 -3.00783 -75.6547
rradius 82.3749
rwrist -10.3549
rhand -31.9726 9.30701
rfingers 7.12502
rthumb -5.22225 -20.6086
lclavicle 3.16068e-014 -1.53064e-014
lhumerus -43.9007 -15.8456 101.691
lradius 128.3
lwrist 13.1169
lhand -21.7764 -12.164
lfingers 7.12502
lthumb 4.62465 17.7656
rfemur -69.3206 -9.99002 12.9625
rtibia 64.1781
rfoot -6.36905 -6.18414
rtoes -33.6069
lfemur -4.36097 -4.43962 -31.3595
ltibia 39.2389
lfoot -1.08975 -7.0731
ltoes -5.99277
25
root 5.33426 16.0198 24.3698 -158.643 -1.79666 -179.886
lowerback 12.3591 -1.92935 -1.68234
upperback -1.6377 -2.6512 2.7832
thorax -8.49239 -1.14933 4.44681
lowerneck -22.4452 1.34392 0.663541
upperneck 4.64016 2.2091 -2.11859
head 4.96344 1.09343 -0.537783
rclavicle -3.18055e-015 -2.22639e-014
rhumerus -71.1022 -3.22115 -74.532
rradius 83.2068
rwrist -10.5082
rhand -31.9338 9.29618
rfingers 7.12502
rthumb -5.18479 -20.6204
lclavicle -3.18055e-015 -2.22639e-014
lhumerus -44.2621 -16.614 101.727
lradius 129.889
lwrist 12.9741
lhand -21.7109 -12.5112
lfingers 7.12502
lthumb 4.68789 17.4169
rfemur -68.8413 -9.49231 12.2429
rtibia 60.1704
rfoot -4.49005 -5.54763
rtoes -35.349
lfemur -1.88462 -4.98491 -31.3596
ltibia 37.031
lfoot 3.28874 -6.44793
ltoes -4.08653
26
root 5.30961 16.0573 23.8097 -158.83 -1.85151 -179.795
lowerback 11.8343 -2.02064 -1.72658
upperback -1.68037 -2.76776 2.9572
thorax -8.21687 -1.20857 4.65241
lowerneck -22.4375 1.53639 0.660634
upperneck 5.16054 2.45646 -2.28954
head 5.13472 1.18103 -0.56493
rclavicle -6.71892e-014 5.32743e-014
rhumerus -72.1456 -3.37636 -73.449
rradius 84.0008
rwrist -10.5669
rhand -31.9342 9.31116
rfingers 7.12502
rthumb -5.18515 -20.6054
lclavicle -6.71892e-014 5.32743e-014
lhumerus -44.6159 -17.2964 101.689
lradius 131.248
lwrist 12.8856
lhand -21.6577 -12.8605
lfingers 7.12502
lthumb 4.73925 17.0665
rfemur -68.2584 -9.08888 11.4556
rtibia 56.23
rfoot -2.31846 -5.00248
rtoes -36.674
lfemur 0.446323 -5.64206 -31.4704
ltibia 35.1034
lfoot 6.85886 -5.65032
ltoes -1.864
27
root 5.28523 16.0825 23.2511 -158.993 -1.97215 -179.775
lowerback 11.2647 -2.12908 -1.79544
upperback -1.71777 -2.91237 3.10508
thorax -7.90666 -1.28234 4.84337
lowerneck -22.4197 1.74073 0.680846
upperneck 5.67216 2.72236 -2.49709
head 5.30378 1.27589 -0.605032
rclavicle -2.90226e-014 1.66979e-014
rhumerus -73.0359 -3.4715 -72.4142
rradius 84.7632
rwrist -10.5083
rhand -31.9476 9.37961
rfingers 7.12502
rthumb -5.19816 -20.5366
lclavicle -2.90226e-014 1.66979e-014
lhumerus -44.9423 -17.8973 101.561
lradius 132.356
lwrist 12.8054
lhand -21.6233 -13.2071
lfingers 7.12502
lthumb 4.77254 16.7191
rfemur -67.5837 -8.80802 10.6129
rtibia 52.4229
rfoot -0.0103175 -4.61588
rtoes -37.8005
lfemur 2.58322 -6.37369 -31.6896
ltibia 33.6111
lfoot 9.36667 -4.76475
ltoes 0.435817
28
root 5.26082 16.0962 22.695 -159.144 -2.1875 -179.827
lowerback 10.6853 -2.2606 -1.87967
upperback -1.75487 -3.09079 3.2322
thorax -7.58659 -1.37312 5.02269
lowerneck -22.4004 1.96447 0.730458
upperneck 6.18768 3.01782 -2.75973
head 5.47694 1.38168 -0.663672
rclavicle 2.46493e-014 -1.43125e-014
rhumerus -73.7798 -3.49832 -71.4206
rradius 85.5064
rwrist -10.3247
rhand -31.9333 9.51652
rfingers 7.12502
rthumb -5.18436 -20.4001
lclavicle 2.46493e-014 -1.43125e-014
lhumerus -45.2375 -18.4078 101.346
lradius 133.189
lwrist 12.6793
lhand -21.6177 -13.5221
lfingers 7.12502
lthumb 4.77792 16.404
rfemur -66.8083 -8.6617 9.7212
rtibia 48.7925
rfoot 2.26761 -4.44491
rtoes -38.8293
lfemur 4.49984 -7.14099 -31.985
ltibia 32.648
lfoot 10.767 -3.85456
ltoes 2.57601
